<?xml version="1.0" encoding="utf-8"?>
<!-- Generator: Adobe Illustrator 19.0.0, SVG Export Plug-In . SVG Version: 6.00 Build 0)  -->
<svg version="1.1" id="Layer_1" xmlns="http://www.w3.org/2000/svg" xmlns:xlink="http://www.w3.org/1999/xlink" x="0px" y="0px"
	 viewBox="-255 129 512 512" style="enable-background:new -255 129 512 512;" xml:space="preserve">
<style type="text/css">
	.st0{fill:#FFC144;}
	.st1{fill:#6D91AC;}
	.st2{fill:#3D003E;}
	.st3{fill:#370027;}
	.st4{fill:#20AE00;}
	.st5{fill:#FF5A58;}
	.st6{fill:#538AFF;}
	.st7{fill:#88DF8E;}
</style>
<g>
	<g>
		<path class="st0" d="M-71.5,183h60v-34c0-5.5-4.5-10-10-10h-40c-5.5,0-10,4.5-10,10L-71.5,183L-71.5,183z"/>
		<path class="st0" d="M-11.5,183h-60v83.4l30,25.8l30-25.8V183z"/>
		<path class="st1" d="M-41.5,292.2l-30-25.8v40c-32.6,12.1-56.5,43.3-55,79.6h170c1.5-36.3-22.4-67.4-55-79.6v-40L-41.5,292.2z"/>
		<path class="st2" d="M43.5,386h-170l7,165h156L43.5,386z M-41.5,423.5c16.6,0,30,20.1,30,45s-13.4,45-30,45s-30-20.1-30-45
			C-71.5,443.6-58,423.5-41.5,423.5z"/>
		<ellipse class="st0" cx="-41.5" cy="468.5" rx="30" ry="45"/>
		<path class="st3" d="M36.5,551h-156l3,70c0.2,5.5,4.5,10,10,10h130c5.5,0,9.8-4.5,10-10L36.5,551z"/>
		<ellipse class="st4" cx="23.5" cy="596" rx="35" ry="35"/>
		<path class="st5" d="M23.5,561c19.3,0,35,15.7,35,35c0-19.3,15.7-35,35-35c0-19.3-15.7-35-35-35c-1.5,0-3,0.1-4.4,0.3
			C36.9,528.5,23.5,543.2,23.5,561z"/>
		
			<ellipse transform="matrix(-1.999996e-003 -1 1 -1.999996e-003 -501.8341 690.7984)" class="st6" cx="93.8" cy="595.8" rx="35" ry="35"/>
		<path class="st7" d="M58.5,526c19.3,0,35,15.7,35,35c2.8-15.3,9.5-25,31.6-30.2c0,0-26-16.3-16.9-39.1c0,0-15,13-43,2
			c0,0,1.5,22.2-11.1,32.5C55.5,526.1,57,526,58.5,526L58.5,526z"/>
	</g>
	<g>
		<path d="M-41.5,523.5c22.4,0,40-24.2,40-55s-17.6-55-40-55s-40,24.2-40,55S-63.9,523.5-41.5,523.5z M-41.5,433.5
			c9.5,0,20,14.4,20,35s-10.5,35-20,35s-20-14.4-20-35S-50.9,433.5-41.5,433.5z"/>
		<path d="M106.5,552.9c2.8-5.1,8.3-9.4,20.9-12.3c3.9-0.9,6.9-4.1,7.5-8.1s-1.1-8-4.5-10.1c-0.8-0.5-18.8-12.2-13-26.9
			c1.7-4.4,0.4-9.5-3.5-12.1c-3.9-2.6-8.9-2.4-12.3,0.8c-1.2,0.9-12.1,8.4-32.8,0.3c-3.2-1.3-6.8-0.8-9.5,1.2
			c-2.8,2-4.3,5.3-4.1,8.7c0.3,4.4-0.4,16.2-5.9,22.5c-0.5,0.1-1,0.2-1.4,0.3l5.6-130.8c1.6-36.9-20.3-70.9-55-86.7V149
			c0-11-9-20-20-20h-40c-11,0-20,9-20,20v150.7c-34.7,15.8-56.6,49.8-55,86.7l10,235c0.5,11,9.2,19.6,20,19.6h130
			c14.1,0,26.8-6.5,35-16.8c8.3,10.2,20.9,16.8,35,16.8c24.8,0,45-20.2,45-45C138.5,575.7,125,558.5,106.5,552.9L106.5,552.9z
			 M58.5,567.8c-5.9-7.3-14.1-12.8-23.5-15.3c3.5-9.6,12.7-16.5,23.5-16.5c10.8,0,20,6.9,23.5,16.5C72.7,555,64.5,560.4,58.5,567.8
			L58.5,567.8z M96.8,507.2c1.3,7.6,5,14.3,9.4,19.8c-4.3,2.2-7.9,4.9-11,8c-5.7-8-14-14.1-23.6-17c1.4-3.8,2.3-7.6,2.9-11
			C83.3,508.7,90.7,508.4,96.8,507.2z M-61.5,193h40v68.8l-20,17.2l-20-17.2L-61.5,193z M-21.5,149v24h-40v-24L-21.5,149z
			 M-68,315.8c3.9-1.5,6.5-5.2,6.5-9.4v-18.2l13.5,11.6c1.9,1.6,4.2,2.4,6.5,2.4s4.6-0.8,6.5-2.4l13.5-11.6v18.2
			c0,4.2,2.6,7.9,6.5,9.4c27.1,10.1,45.5,33.6,48.2,60.2H3.5c-5.5,0-10,4.5-10,10s4.5,10,10,10h29.6l-5.6,132.5
			c-3.8,3.6-6.9,7.8-9.2,12.5h-128.1l-6.2-145h29.6c5.5,0,10-4.5,10-10s-4.5-10-10-10h-29.7C-113.5,349.4-95.1,325.9-68,315.8
			L-68,315.8z M-106.5,620.6L-109,561H-4.7c-10.2,8.3-16.8,20.9-16.8,35c0,9.2,2.8,17.8,7.6,25h-92.5
			C-106.4,620.9-106.5,620.8-106.5,620.6L-106.5,620.6z M23.5,621c-13.8,0-25-11.2-25-25c0-13.8,11.2-25,25-25c13.8,0,25,11.2,25,25
			C48.5,609.8,37.3,621,23.5,621z M93.5,621c-13.8,0-25-11.2-25-25c0-13.8,11.2-25,25-25s25,11.2,25,25
			C118.5,609.8,107.3,621,93.5,621z"/>
		<path d="M-41.5,396c5.5,0,10-4.5,10-10s-4.5-10-10-10h0c-5.5,0-10,4.5-10,10S-47,396-41.5,396z"/>
	</g>
</g>
</svg>
